<?xml version="1.0" encoding="UTF-8" standalone="no"?>
<!-- Created with Inkscape (http://www.inkscape.org/) -->

<svg
   xmlns:dc="http://purl.org/dc/elements/1.1/"
   xmlns:cc="http://creativecommons.org/ns#"
   xmlns:rdf="http://www.w3.org/1999/02/22-rdf-syntax-ns#"
   xmlns:svg="http://www.w3.org/2000/svg"
   xmlns="http://www.w3.org/2000/svg"
   xmlns:sodipodi="http://sodipodi.sourceforge.net/DTD/sodipodi-0.dtd"
   xmlns:inkscape="http://www.inkscape.org/namespaces/inkscape"
   width="240.125"
   height="280.09375"
   id="svg2"
   version="1.1"
   inkscape:version="0.48.4 r9939"
   sodipodi:docname="ghost_logo.svg"
   inkscape:export-filename="\\einstein.rrze.uni-erlangen.de\RRZE Home\Mitarbeiter\unrza317\Desktop\ghost_logo.png"
   inkscape:export-xdpi="901.14941"
   inkscape:export-ydpi="901.14941">
  <defs
     id="defs4" />
  <sodipodi:namedview
     id="base"
     pagecolor="#ffffff"
     bordercolor="#666666"
     borderopacity="1.0"
     inkscape:pageopacity="0.0"
     inkscape:pageshadow="2"
     inkscape:zoom="0.25"
     inkscape:cx="848.63398"
     inkscape:cy="434.34184"
     inkscape:document-units="px"
     inkscape:current-layer="layer1"
     showgrid="true"
     fit-margin-top="0"
     fit-margin-left="0"
     fit-margin-right="0"
     fit-margin-bottom="0"
     inkscape:window-width="1304"
     inkscape:window-height="746"
     inkscape:window-x="54"
     inkscape:window-y="-8"
     inkscape:window-maximized="1"
     inkscape:snap-bbox="true">
    <inkscape:grid
       type="xygrid"
       id="grid2985"
       empspacing="5"
       visible="true"
       enabled="true"
       snapvisiblegridlinesonly="true"
       originx="240.0625px"
       originy="-879.95595px" />
  </sodipodi:namedview>
  <metadata
     id="metadata7">
    <rdf:RDF>
      <cc:Work
         rdf:about="">
        <dc:format>image/svg+xml</dc:format>
        <dc:type
           rdf:resource="http://purl.org/dc/dcmitype/StillImage" />
        <dc:title></dc:title>
      </cc:Work>
    </rdf:RDF>
  </metadata>
  <g
     inkscape:label="Layer 1"
     inkscape:groupmode="layer"
     id="layer1"
     transform="translate(240.0625,107.6875)">
    <path
       inkscape:connector-curvature="0"
       style="fill:#ff6600;fill-opacity:1;stroke:#ff6600;stroke-width:0;stroke-miterlimit:4;stroke-dasharray:none"
       d="m -160,-107.6378 0,19.999999 20,0 0,-19.999999 -20,0 z"
       id="rect2987" />
    <path
       id="path2990"
       d="m -140,-107.6378 0,19.999999 20,0 0,-19.999999 -20,0 z"
       style="fill:#ff6600;fill-opacity:1;stroke:#ff6600;stroke-width:0;stroke-miterlimit:4;stroke-dasharray:none"
       inkscape:connector-curvature="0" />
    <path
       inkscape:connector-curvature="0"
       style="fill:#ff6600;fill-opacity:1;stroke:#ff6600;stroke-width:0;stroke-miterlimit:4;stroke-dasharray:none"
       d="m -120,-107.6378 0,19.999999 20,0 0,-19.999999 -20,0 z"
       id="path2992" />
    <path
       id="path2994"
       d="m -59.999999,-87.637801 0,20 20,0 0,-20 -20,0 z"
       style="fill:#ff6600;fill-opacity:1;stroke:#ff6600;stroke-width:0;stroke-miterlimit:4;stroke-dasharray:none"
       inkscape:connector-curvature="0" />
    <path
       inkscape:connector-curvature="0"
       style="fill:#ff6600;fill-opacity:1;stroke:#ff6600;stroke-width:0;stroke-miterlimit:4;stroke-dasharray:none"
       d="m -79.999999,-87.637801 0,20 20,0 0,-20 -20,0 z"
       id="path2996" />
    <path
       id="path2998"
       d="m -120,-87.637801 0,20 20,0 0,-20 -20,0 z"
       style="fill:#ff6600;fill-opacity:1;stroke:#ff6600;stroke-width:0;stroke-miterlimit:4;stroke-dasharray:none"
       inkscape:connector-curvature="0" />
    <path
       inkscape:connector-curvature="0"
       style="fill:#ff6600;fill-opacity:1;stroke:#ff6600;stroke-width:0;stroke-miterlimit:4;stroke-dasharray:none"
       d="m -140,-87.637801 0,20 20,0 0,-20 -20,0 z"
       id="path3000" />
    <path
       id="path3002"
       d="m -160,-87.637801 0,20 20,0 0,-20 -20,0 z"
       style="fill:#ff6600;fill-opacity:1;stroke:#ff6600;stroke-width:0;stroke-miterlimit:4;stroke-dasharray:none"
       inkscape:connector-curvature="0" />
    <path
       inkscape:connector-curvature="0"
       style="fill:#ff6600;fill-opacity:1;stroke:#ff6600;stroke-width:0;stroke-miterlimit:4;stroke-dasharray:none"
       d="m -180,-87.637801 0,20 20,0 0,-20 -20,0 z"
       id="path3004" />
    <path
       id="path3006"
       d="m -200,-87.637801 0,20 20,0 0,-20 -20,0 z"
       style="fill:#ff6600;fill-opacity:1;stroke:#ff6600;stroke-width:0;stroke-miterlimit:4;stroke-dasharray:none"
       inkscape:connector-curvature="0" />
    <path
       inkscape:connector-curvature="0"
       style="fill:#ff6600;fill-opacity:1;stroke:#ff6600;stroke-width:0;stroke-miterlimit:4;stroke-dasharray:none"
       d="m -59.999999,-67.637801 0,20 20,0 0,-20 -20,0 z"
       id="path3023" />
    <path
       id="path3025"
       d="m -79.999999,-67.637801 0,20 20,0 0,-20 -20,0 z"
       style="fill:#ff6600;fill-opacity:1;stroke:#ff6600;stroke-width:0;stroke-miterlimit:4;stroke-dasharray:none"
       inkscape:connector-curvature="0" />
    <path
       inkscape:connector-curvature="0"
       style="fill:#ff6600;fill-opacity:1;stroke:#ff6600;stroke-width:0;stroke-miterlimit:4;stroke-dasharray:none"
       d="m -120,-67.637801 0,20 20,0 0,-20 -20,0 z"
       id="path3027" />
    <path
       id="path3029"
       d="m -140,-67.637801 0,20 20,0 0,-20 -20,0 z"
       style="fill:#ff6600;fill-opacity:1;stroke:#ff6600;stroke-width:0;stroke-miterlimit:4;stroke-dasharray:none"
       inkscape:connector-curvature="0" />
    <path
       inkscape:connector-curvature="0"
       style="fill:#ff6600;fill-opacity:1;stroke:#ff6600;stroke-width:0;stroke-miterlimit:4;stroke-dasharray:none"
       d="m -160,-67.637801 0,20 20,0 0,-20 -20,0 z"
       id="path3031" />
    <path
       id="path3033"
       d="m -180,-67.637801 0,20 20,0 0,-20 -20,0 z"
       style="fill:#ff6600;fill-opacity:1;stroke:#ff6600;stroke-width:0;stroke-miterlimit:4;stroke-dasharray:none"
       inkscape:connector-curvature="0" />
    <path
       inkscape:connector-curvature="0"
       style="fill:#ff6600;fill-opacity:1;stroke:#ff6600;stroke-width:0;stroke-miterlimit:4;stroke-dasharray:none"
       d="m -200,-67.637801 0,20 20,0 0,-20 -20,0 z"
       id="path3035" />
    <path
       id="path3039"
       d="m -39.999999,-67.637801 0,20 20,0 0,-20 -20,0 z"
       style="fill:#ff6600;fill-opacity:1;stroke:#ff6600;stroke-width:0;stroke-miterlimit:4;stroke-dasharray:none"
       inkscape:connector-curvature="0" />
    <path
       id="path3041"
       d="m -220,-67.637801 0,20 20,0 0,-20 -20,0 z"
       style="fill:#ff6600;fill-opacity:1;stroke:#ff6600;stroke-width:0;stroke-miterlimit:4;stroke-dasharray:none"
       inkscape:connector-curvature="0" />
    <path
       inkscape:connector-curvature="0"
       style="fill:#ff6600;fill-opacity:1;stroke:#ff6600;stroke-width:0;stroke-miterlimit:4;stroke-dasharray:none"
       d="m -19.999999,-47.637801 0,20 20.00000034,0 0,-20 -20.00000034,0 z"
       id="path3043" />
    <path
       id="path3045"
       d="m -79.999999,-47.637801 0,20 20,0 0,-20 -20,0 z"
       style="fill:#ff6600;fill-opacity:1;stroke:#ff6600;stroke-width:0;stroke-miterlimit:4;stroke-dasharray:none"
       inkscape:connector-curvature="0" />
    <path
       inkscape:connector-curvature="0"
       style="fill:#ff6600;fill-opacity:1;stroke:#ff6600;stroke-width:0;stroke-miterlimit:4;stroke-dasharray:none"
       d="m -120,-27.637801 0,20.0000003 20,0 0,-20.0000003 -20,0 z"
       id="path3047" />
    <path
       id="path3049"
       d="m -120,-47.637801 0,20 20,0 0,-20 -20,0 z"
       style="fill:#ff6600;fill-opacity:1;stroke:#ff6600;stroke-width:0;stroke-miterlimit:4;stroke-dasharray:none"
       inkscape:connector-curvature="0" />
    <path
       inkscape:connector-curvature="0"
       style="fill:#ff6600;fill-opacity:1;stroke:#ff6600;stroke-width:0;stroke-miterlimit:4;stroke-dasharray:none"
       d="m -140,-47.637801 0,20 20,0 0,-20 -20,0 z"
       id="path3051" />
    <path
       id="path3053"
       d="m -140,-27.637801 0,20.0000003 20,0 0,-20.0000003 -20,0 z"
       style="fill:#ff6600;fill-opacity:1;stroke:#ff6600;stroke-width:0;stroke-miterlimit:4;stroke-dasharray:none"
       inkscape:connector-curvature="0" />
    <path
       inkscape:connector-curvature="0"
       style="fill:#ff6600;fill-opacity:1;stroke:#ff6600;stroke-width:0;stroke-miterlimit:4;stroke-dasharray:none"
       d="m -120,-7.6378007 0,19.9999997 20,0 0,-19.9999997 -20,0 z"
       id="path3055" />
    <path
       id="path3057"
       d="m -120,12.362199 0,20 20,0 0,-20 -20,0 z"
       style="fill:#ff6600;fill-opacity:1;stroke:#ff6600;stroke-width:0;stroke-miterlimit:4;stroke-dasharray:none"
       inkscape:connector-curvature="0" />
    <path
       inkscape:connector-curvature="0"
       style="fill:#000000;fill-opacity:1;stroke:#000000;stroke-width:0;stroke-miterlimit:4;stroke-dasharray:none"
       d="m -39.999999,-7.6378007 0,19.9999997 20,0 0,-19.9999997 -20,0 z"
       id="path3071" />
    <path
       inkscape:connector-curvature="0"
       style="fill:#000000;fill-opacity:1;stroke:#000000;stroke-width:0;stroke-miterlimit:4;stroke-dasharray:none"
       d="m -19.999999,-7.6378007 0,19.9999997 20.00000034,0 0,-19.9999997 -20.00000034,0 z"
       id="path3075" />
    <path
       inkscape:connector-curvature="0"
       style="fill:#ff6600;fill-opacity:1;stroke:#ff6600;stroke-width:0;stroke-miterlimit:4;stroke-dasharray:none"
       d="m -140,-7.6378007 0,19.9999997 20,0 0,-19.9999997 -20,0 z"
       id="path3077" />
    <path
       id="path3079"
       d="m -140,12.362199 0,20 20,0 0,-20 -20,0 z"
       style="fill:#ff6600;fill-opacity:1;stroke:#ff6600;stroke-width:0;stroke-miterlimit:4;stroke-dasharray:none"
       inkscape:connector-curvature="0" />
    <path
       inkscape:connector-curvature="0"
       style="fill:#000000;fill-opacity:1;stroke:#000000;stroke-width:0;stroke-miterlimit:4;stroke-dasharray:none"
       d="m -160,12.362199 0,20 20,0 0,-20 -20,0 z"
       id="path3081" />
    <path
       id="path3083"
       d="m -160,-7.6378007 0,19.9999997 20,0 0,-19.9999997 -20,0 z"
       style="fill:#000000;fill-opacity:1;stroke:#000000;stroke-width:0;stroke-miterlimit:4;stroke-dasharray:none"
       inkscape:connector-curvature="0" />
    <path
       inkscape:connector-curvature="0"
       style="fill:#000000;fill-opacity:1;stroke:#000000;stroke-width:0;stroke-miterlimit:4;stroke-dasharray:none"
       d="m -180,-7.6378007 0,19.9999997 20,0 0,-19.9999997 -20,0 z"
       id="path3085" />
    <path
       id="path3087"
       d="m -180,12.362199 0,20 20,0 0,-20 -20,0 z"
       style="fill:#000000;fill-opacity:1;stroke:#000000;stroke-width:0;stroke-miterlimit:4;stroke-dasharray:none"
       inkscape:connector-curvature="0" />
    <path
       inkscape:connector-curvature="0"
       style="fill:#ff6600;fill-opacity:1;stroke:#ff6600;stroke-width:0;stroke-miterlimit:4;stroke-dasharray:none"
       d="m -160,-47.637801 0,20 20,0 0,-20 -20,0 z"
       id="path3089" />
    <path
       id="path3091"
       d="m -220,-47.637801 0,20 20,0 0,-20 -20,0 z"
       style="fill:#ff6600;fill-opacity:1;stroke:#ff6600;stroke-width:0;stroke-miterlimit:4;stroke-dasharray:none"
       inkscape:connector-curvature="0" />
    <path
       inkscape:connector-curvature="0"
       style="fill:#ff6600;fill-opacity:1;stroke:#ff6600;stroke-width:0;stroke-miterlimit:4;stroke-dasharray:none"
       d="m -240,-47.637801 0,20 20,0 0,-20 -20,0 z"
       id="path3093" />
    <path
       id="path3095"
       d="m -240,-27.637801 0,20.0000003 20,0 0,-20.0000003 -20,0 z"
       style="fill:#ff6600;fill-opacity:1;stroke:#ff6600;stroke-width:0;stroke-miterlimit:4;stroke-dasharray:none"
       inkscape:connector-curvature="0" />
    <path
       inkscape:connector-curvature="0"
       style="fill:#ff6600;fill-opacity:1;stroke:#ff6600;stroke-width:0;stroke-miterlimit:4;stroke-dasharray:none"
       d="m -240,-7.6378007 0,19.9999997 20,0 0,-19.9999997 -20,0 z"
       id="path3097" />
    <path
       id="path3099"
       d="m -240,12.362199 0,20 20,0 0,-20 -20,0 z"
       style="fill:#ff6600;fill-opacity:1;stroke:#ff6600;stroke-width:0;stroke-miterlimit:4;stroke-dasharray:none"
       inkscape:connector-curvature="0" />
    <path
       id="path3103"
       d="m -240,32.362199 0,20 20,0 0,-20 -20,0 z"
       style="fill:#ff6600;fill-opacity:1;stroke:#ff6600;stroke-width:0;stroke-miterlimit:4;stroke-dasharray:none"
       inkscape:connector-curvature="0" />
    <path
       inkscape:connector-curvature="0"
       style="fill:#ff6600;fill-opacity:1;stroke:#ff6600;stroke-width:0;stroke-miterlimit:4;stroke-dasharray:none"
       d="m -240,52.362199 0,20 20,0 0,-20 -20,0 z"
       id="path3105" />
    <path
       id="path3107"
       d="m -240,112.3622 0,20 20,0 0,-20 -20,0 z"
       style="fill:#ff6600;fill-opacity:1;stroke:#ff6600;stroke-width:0;stroke-miterlimit:4;stroke-dasharray:none"
       inkscape:connector-curvature="0" />
    <path
       inkscape:connector-curvature="0"
       style="fill:#ff6600;fill-opacity:1;stroke:#ff6600;stroke-width:0;stroke-miterlimit:4;stroke-dasharray:none"
       d="m -240,132.3622 0,20 20,0 0,-20 -20,0 z"
       id="path3109" />
    <path
       id="path3111"
       d="m -240,132.3622 0,20 20,0 0,-20 -20,0 z"
       style="fill:#ff6600;fill-opacity:1;stroke:#ff6600;stroke-width:0;stroke-miterlimit:4;stroke-dasharray:none"
       inkscape:connector-curvature="0" />
    <path
       inkscape:connector-curvature="0"
       style="fill:#ff6600;fill-opacity:1;stroke:#ff6600;stroke-width:0;stroke-miterlimit:4;stroke-dasharray:none"
       d="m -220,32.362199 0,20 20,0 0,-20 -20,0 z"
       id="path3113" />
    <path
       id="path3123"
       d="m -160,32.362199 0,20 20,0 0,-20 -20,0 z"
       style="fill:#ff6600;fill-opacity:1;stroke:#ff6600;stroke-width:0;stroke-miterlimit:4;stroke-dasharray:none"
       inkscape:connector-curvature="0" />
    <path
       inkscape:connector-curvature="0"
       style="fill:#ff6600;fill-opacity:1;stroke:#ff6600;stroke-width:0;stroke-miterlimit:4;stroke-dasharray:none"
       d="m -140,32.362199 0,20 20,0 0,-20 -20,0 z"
       id="path3125" />
    <path
       id="path3127"
       d="m -120,32.362199 0,20 20,0 0,-20 -20,0 z"
       style="fill:#ff6600;fill-opacity:1;stroke:#ff6600;stroke-width:0;stroke-miterlimit:4;stroke-dasharray:none"
       inkscape:connector-curvature="0" />
    <path
       inkscape:connector-curvature="0"
       style="fill:#ff6600;fill-opacity:1;stroke:#ff6600;stroke-width:0;stroke-miterlimit:4;stroke-dasharray:none"
       d="m -79.999999,32.362199 0,20 20,0 0,-20 -20,0 z"
       id="path3129" />
    <path
       id="path3131"
       d="m -19.999999,32.362199 0,20 20.00000034,0 0,-20 -20.00000034,0 z"
       style="fill:#ff6600;fill-opacity:1;stroke:#ff6600;stroke-width:0;stroke-miterlimit:4;stroke-dasharray:none"
       inkscape:connector-curvature="0" />
    <path
       inkscape:connector-curvature="0"
       style="fill:#ff6600;fill-opacity:1;stroke:#ff6600;stroke-width:0;stroke-miterlimit:4;stroke-dasharray:none"
       d="m -240,152.3622 0,20 20,0 0,-20 -20,0 z"
       id="path3133" />
    <path
       id="path3135"
       d="m -220,132.3622 0,20 20,0 0,-20 -20,0 z"
       style="fill:#ff6600;fill-opacity:1;stroke:#ff6600;stroke-width:0;stroke-miterlimit:4;stroke-dasharray:none"
       inkscape:connector-curvature="0" />
    <path
       inkscape:connector-curvature="0"
       style="fill:#ff6600;fill-opacity:1;stroke:#ff6600;stroke-width:0;stroke-miterlimit:4;stroke-dasharray:none"
       d="m -200,112.3622 0,20 20,0 0,-20 -20,0 z"
       id="path3137" />
    <path
       id="path3139"
       d="m -180,132.3622 0,20 20,0 0,-20 -20,0 z"
       style="fill:#ff6600;fill-opacity:1;stroke:#ff6600;stroke-width:0;stroke-miterlimit:4;stroke-dasharray:none"
       inkscape:connector-curvature="0" />
    <path
       inkscape:connector-curvature="0"
       style="fill:#ff6600;fill-opacity:1;stroke:#ff6600;stroke-width:0;stroke-miterlimit:4;stroke-dasharray:none"
       d="m -160,152.3622 0,20 20,0 0,-20 -20,0 z"
       id="path3141" />
    <path
       inkscape:connector-curvature="0"
       style="fill:#ff6600;fill-opacity:1;stroke:#ff6600;stroke-width:0;stroke-miterlimit:4;stroke-dasharray:none"
       d="m -100,152.3622 0,20 20.000001,0 0,-20 -20.000001,0 z"
       id="path3153" />
    <path
       inkscape:connector-curvature="0"
       style="fill:#ff6600;fill-opacity:1;stroke:#ff6600;stroke-width:0;stroke-miterlimit:4;stroke-dasharray:none"
       d="m -19.999999,152.3622 0,20 20.00000034,0 0,-20 -20.00000034,0 z"
       id="path3161" />
    <path
       id="path3163"
       d="m -19.999999,132.3622 0,20 20.00000034,0 0,-20 -20.00000034,0 z"
       style="fill:#ff6600;fill-opacity:1;stroke:#ff6600;stroke-width:0;stroke-miterlimit:4;stroke-dasharray:none"
       inkscape:connector-curvature="0" />
    <path
       inkscape:connector-curvature="0"
       style="fill:#ff6600;fill-opacity:1;stroke:#ff6600;stroke-width:0;stroke-miterlimit:4;stroke-dasharray:none"
       d="m -19.999999,52.362199 0,20 20.00000034,0 0,-20 -20.00000034,0 z"
       id="path3167" />
    <path
       inkscape:connector-curvature="0"
       style="fill:#000000;fill-opacity:1;stroke:#000000;stroke-width:0;stroke-miterlimit:4;stroke-dasharray:none"
       d="m -19.999999,12.362199 0,20 20.00000034,0 0,-20 -20.00000034,0 z"
       id="path3173" />
    <path
       id="path3175"
       d="m -100,-107.6378 0,19.999999 20.000001,0 0,-19.999999 -20.000001,0 z"
       style="fill:#ff6600;fill-opacity:1;stroke:#ff6600;stroke-width:0;stroke-miterlimit:4;stroke-dasharray:none"
       inkscape:connector-curvature="0" />
    <path
       inkscape:connector-curvature="0"
       style="fill:#ff6600;fill-opacity:1;stroke:#ff6600;stroke-width:0;stroke-miterlimit:4;stroke-dasharray:none"
       d="m -100,-87.637801 0,20 20.000001,0 0,-20 -20.000001,0 z"
       id="path3177" />
    <path
       id="path3179"
       d="m -100,-67.637801 0,20 20.000001,0 0,-20 -20.000001,0 z"
       style="fill:#ff6600;fill-opacity:1;stroke:#ff6600;stroke-width:0;stroke-miterlimit:4;stroke-dasharray:none"
       inkscape:connector-curvature="0" />
    <path
       id="path3181"
       d="m -100,-27.637801 0,20.0000003 20.000001,0 0,-20.0000003 -20.000001,0 z"
       style="fill:#ff6600;fill-opacity:1;stroke:#ff6600;stroke-width:0;stroke-miterlimit:4;stroke-dasharray:none"
       inkscape:connector-curvature="0" />
    <path
       inkscape:connector-curvature="0"
       style="fill:#ff6600;fill-opacity:1;stroke:#ff6600;stroke-width:0;stroke-miterlimit:4;stroke-dasharray:none"
       d="m -100,-47.637801 0,20 20.000001,0 0,-20 -20.000001,0 z"
       id="path3183" />
    <path
       id="path3185"
       d="m -100,-7.6378007 0,19.9999997 20.000001,0 0,-19.9999997 -20.000001,0 z"
       style="fill:#ff6600;fill-opacity:1;stroke:#ff6600;stroke-width:0;stroke-miterlimit:4;stroke-dasharray:none"
       inkscape:connector-curvature="0" />
    <path
       inkscape:connector-curvature="0"
       style="fill:#ff6600;fill-opacity:1;stroke:#ff6600;stroke-width:0;stroke-miterlimit:4;stroke-dasharray:none"
       d="m -100,12.362199 0,20 20.000001,0 0,-20 -20.000001,0 z"
       id="path3187" />
    <path
       inkscape:connector-curvature="0"
       style="fill:#ff6600;fill-opacity:1;stroke:#ff6600;stroke-width:0;stroke-miterlimit:4;stroke-dasharray:none"
       d="m -100,32.362199 0,20 20.000001,0 0,-20 -20.000001,0 z"
       id="path3189" />
    <path
       id="path3191"
       d="m -39.999999,12.362199 0,20 20,0 0,-20 -20,0 z"
       style="fill:#000000;fill-opacity:1;stroke:#000000;stroke-width:0;stroke-miterlimit:4;stroke-dasharray:none"
       inkscape:connector-curvature="0" />
    <path
       id="path3193"
       d="m -19.999999,112.3622 0,20 20.00000034,0 0,-20 -20.00000034,0 z"
       style="fill:#ff6600;fill-opacity:1;stroke:#ff6600;stroke-width:0;stroke-miterlimit:4;stroke-dasharray:none"
       inkscape:connector-curvature="0" />
    <path
       inkscape:connector-curvature="0"
       style="fill:#ff6600;fill-opacity:1;stroke:#ff6600;stroke-width:0;stroke-miterlimit:4;stroke-dasharray:none"
       d="m -59.999999,52.362199 0,20 20,0 0,-20 -20,0 z"
       id="path3195" />
    <path
       id="path3197"
       d="m -39.999999,52.362199 0,20 20,0 0,-20 -20,0 z"
       style="fill:#ff6600;fill-opacity:1;stroke:#ff6600;stroke-width:0;stroke-miterlimit:4;stroke-dasharray:none"
       inkscape:connector-curvature="0" />
    <path
       id="path3201"
       d="m -220,52.362199 0,20 20,0 0,-20 -20,0 z"
       style="fill:#ff6600;fill-opacity:1;stroke:#ff6600;stroke-width:0;stroke-miterlimit:4;stroke-dasharray:none"
       inkscape:connector-curvature="0" />
    <path
       id="path3203"
       d="m -200,52.362199 0,20 20,0 0,-20 -20,0 z"
       style="fill:#ff6600;fill-opacity:1;stroke:#ff6600;stroke-width:0;stroke-miterlimit:4;stroke-dasharray:none"
       inkscape:connector-curvature="0" />
    <path
       inkscape:connector-curvature="0"
       style="fill:#ff6600;fill-opacity:1;stroke:#ff6600;stroke-width:0;stroke-miterlimit:4;stroke-dasharray:none"
       d="m -180,52.362199 0,20 20,0 0,-20 -20,0 z"
       id="path3205" />
    <path
       id="path3207"
       d="m -180,52.362199 0,20 20,0 0,-20 -20,0 z"
       style="fill:#ff6600;fill-opacity:1;stroke:#ff6600;stroke-width:0;stroke-miterlimit:4;stroke-dasharray:none"
       inkscape:connector-curvature="0" />
    <path
       inkscape:connector-curvature="0"
       style="fill:#ff6600;fill-opacity:1;stroke:#ff6600;stroke-width:0;stroke-miterlimit:4;stroke-dasharray:none"
       d="m -160,52.362199 0,20 20,0 0,-20 -20,0 z"
       id="path3209" />
    <path
       id="path3211"
       d="m -140,52.362199 0,20 20,0 0,-20 -20,0 z"
       style="fill:#ff6600;fill-opacity:1;stroke:#ff6600;stroke-width:0;stroke-miterlimit:4;stroke-dasharray:none"
       inkscape:connector-curvature="0" />
    <path
       inkscape:connector-curvature="0"
       style="fill:#ff6600;fill-opacity:1;stroke:#ff6600;stroke-width:0;stroke-miterlimit:4;stroke-dasharray:none"
       d="m -120,52.362199 0,20 20,0 0,-20 -20,0 z"
       id="path3213" />
    <path
       id="path3215"
       d="m -79.999999,52.362199 0,20 20,0 0,-20 -20,0 z"
       style="fill:#ff6600;fill-opacity:1;stroke:#ff6600;stroke-width:0;stroke-miterlimit:4;stroke-dasharray:none"
       inkscape:connector-curvature="0" />
    <path
       id="path3219"
       d="m -100,52.362199 0,20 20.000001,0 0,-20 -20.000001,0 z"
       style="fill:#ff6600;fill-opacity:1;stroke:#ff6600;stroke-width:0;stroke-miterlimit:4;stroke-dasharray:none"
       inkscape:connector-curvature="0" />
    <path
       inkscape:connector-curvature="0"
       style="fill:#ff6600;fill-opacity:1;stroke:#ff6600;stroke-width:0;stroke-miterlimit:4;stroke-dasharray:none"
       d="m -220,112.3622 0,20 20,0 0,-20 -20,0 z"
       id="path3221" />
    <path
       id="path3223"
       d="m -180,112.3622 0,20 20,0 0,-20 -20,0 z"
       style="fill:#ff6600;fill-opacity:1;stroke:#ff6600;stroke-width:0;stroke-miterlimit:4;stroke-dasharray:none"
       inkscape:connector-curvature="0" />
    <path
       inkscape:connector-curvature="0"
       style="fill:#ff6600;fill-opacity:1;stroke:#ff6600;stroke-width:0;stroke-miterlimit:4;stroke-dasharray:none"
       d="m -160,112.3622 0,20 20,0 0,-20 -20,0 z"
       id="path3225" />
    <path
       id="path3227"
       d="m -140,112.3622 0,20 20,0 0,-20 -20,0 z"
       style="fill:#ff6600;fill-opacity:1;stroke:#ff6600;stroke-width:0;stroke-miterlimit:4;stroke-dasharray:none"
       inkscape:connector-curvature="0" />
    <path
       inkscape:connector-curvature="0"
       style="fill:#ff6600;fill-opacity:1;stroke:#ff6600;stroke-width:0;stroke-miterlimit:4;stroke-dasharray:none"
       d="m -120,112.3622 0,20 20,0 0,-20 -20,0 z"
       id="path3229" />
    <path
       id="path3231"
       d="m -100,112.3622 0,20 20.000001,0 0,-20 -20.000001,0 z"
       style="fill:#ff6600;fill-opacity:1;stroke:#ff6600;stroke-width:0;stroke-miterlimit:4;stroke-dasharray:none"
       inkscape:connector-curvature="0" />
    <path
       inkscape:connector-curvature="0"
       style="fill:#ff6600;fill-opacity:1;stroke:#ff6600;stroke-width:0;stroke-miterlimit:4;stroke-dasharray:none"
       d="m -79.999999,112.3622 0,20 20,0 0,-20 -20,0 z"
       id="path3233" />
    <path
       id="path3235"
       d="m -59.999999,112.3622 0,20 20,0 0,-20 -20,0 z"
       style="fill:#ff6600;fill-opacity:1;stroke:#ff6600;stroke-width:0;stroke-miterlimit:4;stroke-dasharray:none"
       inkscape:connector-curvature="0" />
    <path
       inkscape:connector-curvature="0"
       style="fill:#ff6600;fill-opacity:1;stroke:#ff6600;stroke-width:0;stroke-miterlimit:4;stroke-dasharray:none"
       d="m -39.999999,112.3622 0,20 20,0 0,-20 -20,0 z"
       id="path3237" />
    <path
       id="path3239"
       d="m -39.999999,132.3622 0,20 20,0 0,-20 -20,0 z"
       style="fill:#ff6600;fill-opacity:1;stroke:#ff6600;stroke-width:0;stroke-miterlimit:4;stroke-dasharray:none"
       inkscape:connector-curvature="0" />
    <path
       inkscape:connector-curvature="0"
       style="fill:#ff6600;fill-opacity:1;stroke:#ff6600;stroke-width:0;stroke-miterlimit:4;stroke-dasharray:none"
       d="m -79.999999,132.3622 0,20 20,0 0,-20 -20,0 z"
       id="path3241" />
    <path
       id="path3243"
       d="m -100,132.3622 0,20 20.000001,0 0,-20 -20.000001,0 z"
       style="fill:#ff6600;fill-opacity:1;stroke:#ff6600;stroke-width:0;stroke-miterlimit:4;stroke-dasharray:none"
       inkscape:connector-curvature="0" />
    <path
       inkscape:connector-curvature="0"
       style="fill:#ff6600;fill-opacity:1;stroke:#ff6600;stroke-width:0;stroke-miterlimit:4;stroke-dasharray:none"
       d="m -160,132.3622 0,20 20,0 0,-20 -20,0 z"
       id="path3245" />
    <path
       id="path3247"
       d="m -240,72.362199 0,20 20,0 0,-20 -20,0 z"
       style="fill:#ff6600;fill-opacity:1;stroke:#ff6600;stroke-width:0;stroke-miterlimit:4;stroke-dasharray:none"
       inkscape:connector-curvature="0" />
    <path
       id="path3249"
       d="m -19.999999,72.362199 0,20 20.00000034,0 0,-20 -20.00000034,0 z"
       style="fill:#ff6600;fill-opacity:1;stroke:#ff6600;stroke-width:0;stroke-miterlimit:4;stroke-dasharray:none"
       inkscape:connector-curvature="0" />
    <path
       id="path3251"
       d="m -59.999999,72.362199 0,20 20,0 0,-20 -20,0 z"
       style="fill:#ff6600;fill-opacity:1;stroke:#ff6600;stroke-width:0;stroke-miterlimit:4;stroke-dasharray:none"
       inkscape:connector-curvature="0" />
    <path
       inkscape:connector-curvature="0"
       style="fill:#ff6600;fill-opacity:1;stroke:#ff6600;stroke-width:0;stroke-miterlimit:4;stroke-dasharray:none"
       d="m -39.999999,72.362199 0,20 20,0 0,-20 -20,0 z"
       id="path3253" />
    <path
       inkscape:connector-curvature="0"
       style="fill:#ff6600;fill-opacity:1;stroke:#ff6600;stroke-width:0;stroke-miterlimit:4;stroke-dasharray:none"
       d="m -220,72.362199 0,20 20,0 0,-20 -20,0 z"
       id="path3255" />
    <path
       inkscape:connector-curvature="0"
       style="fill:#ff6600;fill-opacity:1;stroke:#ff6600;stroke-width:0;stroke-miterlimit:4;stroke-dasharray:none"
       d="m -200,72.362199 0,20 20,0 0,-20 -20,0 z"
       id="path3257" />
    <path
       id="path3259"
       d="m -180,72.362199 0,20 20,0 0,-20 -20,0 z"
       style="fill:#ff6600;fill-opacity:1;stroke:#ff6600;stroke-width:0;stroke-miterlimit:4;stroke-dasharray:none"
       inkscape:connector-curvature="0" />
    <path
       inkscape:connector-curvature="0"
       style="fill:#ff6600;fill-opacity:1;stroke:#ff6600;stroke-width:0;stroke-miterlimit:4;stroke-dasharray:none"
       d="m -180,72.362199 0,20 20,0 0,-20 -20,0 z"
       id="path3261" />
    <path
       id="path3263"
       d="m -160,72.362199 0,20 20,0 0,-20 -20,0 z"
       style="fill:#ff6600;fill-opacity:1;stroke:#ff6600;stroke-width:0;stroke-miterlimit:4;stroke-dasharray:none"
       inkscape:connector-curvature="0" />
    <path
       inkscape:connector-curvature="0"
       style="fill:#ff6600;fill-opacity:1;stroke:#ff6600;stroke-width:0;stroke-miterlimit:4;stroke-dasharray:none"
       d="m -140,72.362199 0,20 20,0 0,-20 -20,0 z"
       id="path3265" />
    <path
       id="path3267"
       d="m -120,72.362199 0,20 20,0 0,-20 -20,0 z"
       style="fill:#ff6600;fill-opacity:1;stroke:#ff6600;stroke-width:0;stroke-miterlimit:4;stroke-dasharray:none"
       inkscape:connector-curvature="0" />
    <path
       inkscape:connector-curvature="0"
       style="fill:#ff6600;fill-opacity:1;stroke:#ff6600;stroke-width:0;stroke-miterlimit:4;stroke-dasharray:none"
       d="m -79.999999,72.362199 0,20 20,0 0,-20 -20,0 z"
       id="path3269" />
    <path
       inkscape:connector-curvature="0"
       style="fill:#ff6600;fill-opacity:1;stroke:#ff6600;stroke-width:0;stroke-miterlimit:4;stroke-dasharray:none"
       d="m -100,72.362199 0,20 20.000001,0 0,-20 -20.000001,0 z"
       id="path3271" />
    <path
       inkscape:connector-curvature="0"
       style="fill:#ff6600;fill-opacity:1;stroke:#ff6600;stroke-width:0;stroke-miterlimit:4;stroke-dasharray:none"
       d="m -240,92.362199 0,20.000001 20,0 0,-20.000001 -20,0 z"
       id="path3273" />
    <path
       inkscape:connector-curvature="0"
       style="fill:#ff6600;fill-opacity:1;stroke:#ff6600;stroke-width:0;stroke-miterlimit:4;stroke-dasharray:none"
       d="m -19.999999,92.362199 0,20.000001 20.00000034,0 0,-20.000001 -20.00000034,0 z"
       id="path3275" />
    <path
       inkscape:connector-curvature="0"
       style="fill:#ff6600;fill-opacity:1;stroke:#ff6600;stroke-width:0;stroke-miterlimit:4;stroke-dasharray:none"
       d="m -59.999999,92.362199 0,20.000001 20,0 0,-20.000001 -20,0 z"
       id="path3277" />
    <path
       id="path3279"
       d="m -39.999999,92.362199 0,20.000001 20,0 0,-20.000001 -20,0 z"
       style="fill:#ff6600;fill-opacity:1;stroke:#ff6600;stroke-width:0;stroke-miterlimit:4;stroke-dasharray:none"
       inkscape:connector-curvature="0" />
    <path
       id="path3281"
       d="m -220,92.362199 0,20.000001 20,0 0,-20.000001 -20,0 z"
       style="fill:#ff6600;fill-opacity:1;stroke:#ff6600;stroke-width:0;stroke-miterlimit:4;stroke-dasharray:none"
       inkscape:connector-curvature="0" />
    <path
       id="path3283"
       d="m -200,92.362199 0,20.000001 20,0 0,-20.000001 -20,0 z"
       style="fill:#ff6600;fill-opacity:1;stroke:#ff6600;stroke-width:0;stroke-miterlimit:4;stroke-dasharray:none"
       inkscape:connector-curvature="0" />
    <path
       inkscape:connector-curvature="0"
       style="fill:#ff6600;fill-opacity:1;stroke:#ff6600;stroke-width:0;stroke-miterlimit:4;stroke-dasharray:none"
       d="m -180,92.362199 0,20.000001 20,0 0,-20.000001 -20,0 z"
       id="path3285" />
    <path
       id="path3287"
       d="m -180,92.362199 0,20.000001 20,0 0,-20.000001 -20,0 z"
       style="fill:#ff6600;fill-opacity:1;stroke:#ff6600;stroke-width:0;stroke-miterlimit:4;stroke-dasharray:none"
       inkscape:connector-curvature="0" />
    <path
       inkscape:connector-curvature="0"
       style="fill:#ff6600;fill-opacity:1;stroke:#ff6600;stroke-width:0;stroke-miterlimit:4;stroke-dasharray:none"
       d="m -160,92.362199 0,20.000001 20,0 0,-20.000001 -20,0 z"
       id="path3289" />
    <path
       id="path3291"
       d="m -140,92.362199 0,20.000001 20,0 0,-20.000001 -20,0 z"
       style="fill:#ff6600;fill-opacity:1;stroke:#ff6600;stroke-width:0;stroke-miterlimit:4;stroke-dasharray:none"
       inkscape:connector-curvature="0" />
    <path
       inkscape:connector-curvature="0"
       style="fill:#ff6600;fill-opacity:1;stroke:#ff6600;stroke-width:0;stroke-miterlimit:4;stroke-dasharray:none"
       d="m -120,92.362199 0,20.000001 20,0 0,-20.000001 -20,0 z"
       id="path3293" />
    <path
       id="path3295"
       d="m -79.999999,92.362199 0,20.000001 20,0 0,-20.000001 -20,0 z"
       style="fill:#ff6600;fill-opacity:1;stroke:#ff6600;stroke-width:0;stroke-miterlimit:4;stroke-dasharray:none"
       inkscape:connector-curvature="0" />
    <path
       id="path3297"
       d="m -100,92.362199 0,20.000001 20.000001,0 0,-20.000001 -20.000001,0 z"
       style="fill:#ff6600;fill-opacity:1;stroke:#ff6600;stroke-width:0;stroke-miterlimit:4;stroke-dasharray:none"
       inkscape:connector-curvature="0" />
    <text
       xml:space="preserve"
       style="font-size:191.22343445px;font-style:normal;font-variant:normal;font-weight:normal;font-stretch:normal;line-height:125%;letter-spacing:0px;word-spacing:0px;fill:#000000;fill-opacity:1;stroke:none;font-family:Leelawadee;-inkscape-font-specification:Leelawadee"
       x="29.358452"
       y="172.05138"
       id="text3299"
       sodipodi:linespacing="125%"
       transform="scale(1.0117394,0.98839677)"><tspan
         sodipodi:role="line"
         id="tspan3301"
         x="29.358452"
         y="172.05138"
         style="font-style:normal;font-variant:normal;font-weight:normal;font-stretch:normal;font-family:Arial;-inkscape-font-specification:Arial">GHOST</tspan></text>
  </g>
</svg>
